<?xml version="1.0" standalone="no"?>
<!DOCTYPE svg PUBLIC "-//W3C//DTD SVG 20010904//EN"
 "http://www.w3.org/TR/2001/REC-SVG-20010904/DTD/svg10.dtd">
<svg version="1.0" xmlns="http://www.w3.org/2000/svg"
 width="512.000000pt" height="512.000000pt" viewBox="0 0 512.000000 512.000000"
 preserveAspectRatio="xMidYMid meet">
<metadata>
Created by potrace 1.16, written by Peter Selinger 2001-2019
</metadata>
<g transform="translate(0.000000,512.000000) scale(0.100000,-0.100000)"
fill="#000000" stroke="none">
<path d="M859 4917 c-102 -69 -222 -318 -265 -552 -13 -71 -15 -123 -10 -250
3 -88 9 -177 12 -199 4 -25 3 -37 -4 -32 -26 16 -163 26 -223 17 -115 -19
-131 -47 -109 -193 21 -143 73 -268 161 -384 l51 -68 -12 -90 c-12 -89 -13
-92 -71 -162 -74 -89 -155 -223 -174 -288 -32 -107 -13 -215 65 -371 128 -255
365 -496 590 -600 36 -16 68 -34 72 -40 24 -32 2 -180 -57 -390 -67 -238 -57
-387 32 -515 41 -58 109 -116 150 -126 35 -9 89 19 112 57 11 18 23 55 26 83
4 28 13 66 21 84 13 33 38 43 47 19 3 -7 33 -48 68 -91 214 -267 562 -440 971
-485 157 -18 385 -11 525 15 29 6 33 3 52 -35 53 -102 142 -156 221 -132 83
25 132 98 146 219 7 63 7 63 48 80 22 9 86 38 141 65 109 53 123 54 213 16 71
-31 107 -63 161 -143 78 -115 122 -144 202 -133 58 8 114 50 144 110 60 122 7
384 -114 560 l-31 45 49 74 c56 84 149 176 236 235 33 22 121 71 195 108 178
89 256 135 332 196 78 62 83 71 59 100 -14 18 -17 30 -10 53 15 52 11 162 -6
176 -16 13 -151 9 -187 -5 -12 -5 -20 -1 -24 11 -27 86 -90 174 -123 174 -9 0
-49 -18 -90 -41 -40 -22 -75 -38 -76 -37 -1 2 -12 24 -24 50 -23 48 -91 132
-120 147 -23 12 -124 -21 -176 -58 l-42 -30 -21 52 c-27 65 -77 127 -103 127
-33 0 -128 -37 -180 -71 -28 -17 -51 -30 -53 -28 -1 2 -10 42 -20 89 -21 100
-38 135 -66 143 -46 12 -181 -20 -250 -60 -3 -2 -6 48 -7 110 -1 61 -8 135
-16 162 l-14 50 -56 -1 -57 -1 33 39 c97 118 126 174 112 217 -6 19 -86 54
-157 68 l-37 8 67 50 c124 93 222 243 263 403 11 45 19 102 17 129 l-3 48 -45
8 c-25 4 -118 9 -207 10 -90 1 -163 5 -163 8 0 3 14 18 30 34 73 70 181 256
234 403 33 93 66 255 66 327 0 92 -40 145 -111 145 -66 0 -97 -32 -169 -175
-36 -72 -86 -161 -110 -200 l-45 -70 -3 35 c-5 64 -12 80 -45 100 -67 41 -109
16 -169 -104 -74 -147 -232 -364 -261 -359 -7 2 -70 23 -142 47 -148 51 -291
82 -420 92 -86 7 -92 9 -150 52 -159 118 -398 183 -494 134 -51 -26 -76 -65
-76 -120 0 -26 4 -54 8 -64 7 -13 -2 -19 -48 -33 -32 -9 -59 -14 -61 -12 -2 2
12 87 31 188 41 214 42 237 14 273 -16 20 -29 26 -60 26 -34 0 -46 -7 -84 -46
l-45 -46 0 60 c0 85 17 200 47 316 29 116 26 153 -18 190 -38 32 -66 33 -110
3z m85 -53 c11 -28 6 -68 -19 -167 -28 -111 -44 -296 -36 -407 5 -67 8 -75 28
-78 18 -3 26 7 49 58 24 54 81 120 103 120 5 0 14 -7 21 -15 9 -11 3 -58 -29
-228 -23 -118 -41 -217 -41 -220 0 -4 -19 -16 -42 -28 -63 -32 -146 -90 -205
-143 l-52 -47 -16 38 c-22 53 -53 175 -65 258 -30 214 12 469 110 666 43 87
113 195 132 202 26 11 56 6 62 -9z m2359 -301 c25 -29 29 -64 17 -152 -32
-232 -144 -472 -303 -647 -48 -52 -66 -64 -123 -83 -80 -26 -136 -58 -196
-111 l-45 -39 -41 25 c-51 30 -88 103 -97 191 l-7 63 52 57 c66 74 161 215
210 312 21 42 46 84 57 93 17 16 21 16 41 2 21 -15 22 -22 20 -117 -3 -90 -1
-102 14 -105 24 -5 157 199 240 366 76 153 119 191 161 145z m-1831 -442 c91
-24 171 -63 257 -126 61 -45 66 -47 160 -56 170 -17 336 -55 481 -110 l76 -29
12 -76 c7 -45 23 -97 39 -126 28 -51 86 -108 111 -108 9 0 10 -5 3 -17 -11
-21 3 -53 24 -53 7 0 29 22 49 49 112 152 315 210 644 184 80 -6 82 -6 82 -32
0 -85 -77 -268 -150 -356 -91 -109 -231 -196 -375 -233 -58 -14 -71 -21 -73
-40 -5 -36 24 -38 143 -7 105 27 116 27 176 16 94 -19 130 -36 122 -58 -13
-37 -74 -112 -153 -187 -93 -88 -95 -102 -22 -128 59 -21 129 -79 118 -97 -15
-24 -124 -88 -181 -105 -31 -10 -59 -25 -62 -33 -3 -8 2 -31 12 -51 23 -48 45
-129 45 -168 0 -26 -6 -33 -37 -47 -61 -26 -95 -29 -186 -17 l-86 12 -61 -66
c-72 -77 -165 -138 -244 -161 -47 -14 -56 -20 -56 -40 0 -12 7 -26 17 -29 49
-19 220 73 317 172 l48 50 97 -5 c106 -6 151 3 214 43 37 24 37 25 37 92 -1
39 -9 90 -20 122 -10 30 -16 58 -12 61 4 3 26 13 48 23 l42 18 55 -45 c182
-148 380 -243 618 -296 52 -11 177 -35 279 -52 235 -39 342 -67 456 -116 90
-39 196 -105 263 -163 29 -25 32 -31 21 -45 -27 -32 -192 -134 -331 -205 -248
-125 -347 -201 -449 -344 l-55 -76 -17 22 c-44 57 -61 171 -34 229 4 10 1 23
-9 33 -26 25 -51 4 -65 -53 -21 -88 8 -176 100 -301 147 -201 214 -451 151
-569 -21 -38 -71 -71 -110 -71 -49 0 -73 18 -130 104 -98 145 -173 185 -421
226 -147 25 -199 39 -267 74 -90 45 -128 106 -146 231 -1 14 -10 20 -27 20
-23 0 -25 -4 -28 -49 -4 -69 19 -123 79 -184 65 -66 147 -105 279 -132 57 -12
106 -23 107 -24 7 -7 -189 -90 -297 -126 -385 -129 -810 -139 -1160 -28 -287
90 -528 267 -680 498 -75 115 -115 213 -142 352 -22 108 -24 113 -48 113 -21
0 -25 -5 -28 -35 -4 -53 41 -218 87 -316 l41 -86 -25 -29 c-23 -28 -45 -85
-45 -119 0 -8 -5 -32 -11 -53 -22 -79 -91 -66 -162 31 -52 71 -68 118 -74 212
-5 92 0 122 61 355 20 77 40 175 43 218 6 74 7 78 27 73 100 -26 127 -29 142
-14 28 28 6 45 -85 68 -246 60 -445 196 -613 417 -157 207 -218 340 -218 473
1 95 69 225 194 369 45 52 56 71 56 100 0 62 36 213 70 293 99 240 295 426
539 512 l73 26 -26 -30 c-62 -75 -34 -163 67 -205 47 -20 83 -19 91 1 9 23 -9
41 -52 55 -50 16 -72 37 -72 69 0 44 42 77 123 94 15 4 30 13 34 21 7 20 -14
45 -39 45 -11 0 -33 13 -49 29 -37 38 -39 82 -4 116 31 32 99 33 207 6z m-901
-292 c44 -10 49 -13 63 -55 8 -24 14 -44 13 -44 -1 0 -29 11 -62 25 -80 33
-200 36 -210 5 -10 -32 0 -37 79 -42 76 -5 182 -45 192 -73 3 -7 -10 -35 -29
-62 -36 -49 -109 -192 -120 -235 -6 -22 -9 -20 -43 27 -76 105 -130 251 -141
386 -6 66 -5 68 18 73 13 3 33 7 44 10 26 6 135 -2 196 -15z m2990 -1436 c10
-26 38 -163 39 -190 0 -7 -5 -13 -11 -13 -16 0 -168 75 -222 110 -42 26 -47
33 -36 46 28 33 125 71 192 73 21 1 30 -5 38 -26z m358 -165 c26 -45 49 -124
39 -132 -5 -5 -165 29 -233 48 l-57 17 23 25 c26 28 153 94 180 94 12 0 29
-19 48 -52z m376 -142 c14 -27 24 -51 22 -52 -3 -3 -262 43 -282 50 -19 6 66
75 117 94 l53 20 33 -31 c18 -17 43 -54 57 -81z m-1100 -1688 c-16 -97 -63
-158 -122 -158 -34 0 -83 35 -113 80 l-29 44 121 33 c67 18 124 36 127 38 15
16 22 0 16 -37z"/>
<path d="M3093 3585 c-29 -8 -70 -23 -91 -34 -55 -28 -135 -93 -151 -124 -12
-23 -11 -28 8 -53 22 -28 27 -76 12 -118 -7 -18 -6 -28 4 -36 26 -21 49 -7 64
40 14 43 12 59 -15 141 -7 22 79 84 151 110 30 10 81 19 114 19 75 0 91 6 91
35 0 13 -7 26 -16 29 -27 10 -116 5 -171 -9z"/>
<path d="M698 3187 c-40 -34 -58 -79 -58 -147 0 -100 48 -170 115 -170 66 0
117 74 117 170 0 130 -97 212 -174 147z"/>
<path d="M1877 3180 c-76 -66 -76 -214 0 -280 40 -36 79 -39 118 -8 80 63 85
210 10 285 -43 43 -82 44 -128 3z"/>
<path d="M1561 2718 c-48 -125 -68 -148 -135 -155 -57 -7 -123 23 -170 79 -39
45 -69 48 -74 8 -13 -109 -84 -120 -173 -29 -49 51 -73 57 -85 24 -8 -19 46
-87 90 -115 24 -14 40 -36 56 -78 42 -105 112 -232 142 -257 16 -14 40 -28 54
-31 94 -24 193 107 202 268 4 69 7 77 27 82 54 14 140 162 122 210 -9 24 -46
20 -56 -6z m-241 -197 c25 -11 56 -21 69 -21 23 0 24 -2 19 -68 -7 -101 -66
-212 -112 -212 -31 0 -76 54 -119 143 -64 131 -64 134 -27 142 17 4 42 21 57
41 27 33 28 33 48 14 11 -10 40 -28 65 -39z"/>
<path d="M1931 1516 c-45 -54 -39 -416 10 -661 28 -139 70 -221 134 -263 44
-30 56 -33 102 -30 103 9 151 75 183 251 34 190 89 372 151 508 34 73 33 102
-3 97 -26 -3 -38 -26 -97 -174 -46 -116 -83 -255 -106 -397 -9 -54 -23 -116
-31 -138 -22 -53 -66 -89 -111 -89 -50 0 -112 65 -137 142 -52 165 -76 432
-57 621 10 92 10 121 1 133 -16 18 -24 18 -39 0z"/>
</g>
</svg>
